<?xml version="1.0" encoding="UTF-8" standalone="no"?>
<svg
   xmlns:dc="http://purl.org/dc/elements/1.1/"
   xmlns:cc="http://creativecommons.org/ns#"
   xmlns:rdf="http://www.w3.org/1999/02/22-rdf-syntax-ns#"
   xmlns:svg="http://www.w3.org/2000/svg"
   xmlns="http://www.w3.org/2000/svg"
   xmlns:xlink="http://www.w3.org/1999/xlink"
   xmlns:sodipodi="http://sodipodi.sourceforge.net/DTD/sodipodi-0.dtd"
   xmlns:inkscape="http://www.inkscape.org/namespaces/inkscape"
   width="512"
   height="256"
   viewBox="0 0 135.46666 67.733335"
   version="1.1"
   id="svg8"
   inkscape:version="1.0.2 (e86c870879, 2021-01-15)"
   sodipodi:docname="roadUV.svg">
  <defs
     id="defs2">
    <inkscape:path-effect
       effect="skeletal"
       id="path-effect2086"
       is_visible="true"
       lpeversion="1"
       pattern="m 66.871181,32.119827 c 0.02849,0.205266 0.218214,0.348736 0.423483,0.320242 0.205269,-0.02849 0.348738,-0.218215 0.320244,-0.423481 -0.02849,-0.205269 -0.218214,-0.348738 -0.423483,-0.320244 -0.205269,0.02849 -0.348738,0.218214 -0.320244,0.423483 z"
       copytype="single_stretched"
       prop_scale="1"
       scale_y_rel="false"
       spacing="0"
       normal_offset="0"
       tang_offset="0"
       prop_units="false"
       vertical_pattern="false"
       hide_knot="false"
       fuse_tolerance="0" />
    <inkscape:path-effect
       effect="spiro"
       id="path-effect2084"
       is_visible="true"
       lpeversion="1" />
    <inkscape:path-effect
       effect="skeletal"
       id="path-effect2058"
       is_visible="true"
       lpeversion="1"
       pattern="m 10.774273,13.649111 c 0.02849,-0.205266 0.218214,-0.348736 0.423483,-0.320242 0.205269,0.02849 0.348738,0.218215 0.320244,0.423481 -0.02849,0.205269 -0.218214,0.348738 -0.423483,0.320244 -0.205269,-0.02849 -0.348738,-0.218214 -0.320244,-0.423483 z"
       copytype="single_stretched"
       prop_scale="1"
       scale_y_rel="false"
       spacing="0"
       normal_offset="0"
       tang_offset="0"
       prop_units="false"
       vertical_pattern="false"
       hide_knot="false"
       fuse_tolerance="0" />
    <inkscape:path-effect
       effect="spiro"
       id="path-effect2056"
       is_visible="true"
       lpeversion="1" />
    <inkscape:path-effect
       effect="skeletal"
       id="path-effect2030"
       is_visible="true"
       lpeversion="1"
       pattern="m 66.311568,38.653591 c 0,-0.24329 0.197453,-0.440743 0.440743,-0.440743 0.24329,0 0.440743,0.197453 0.440743,0.440743 0,0.24329 -0.197453,0.440743 -0.440743,0.440743 -0.24329,0 -0.440743,-0.197453 -0.440743,-0.440743 z"
       copytype="single_stretched"
       prop_scale="1"
       scale_y_rel="false"
       spacing="0"
       normal_offset="0"
       tang_offset="0"
       prop_units="false"
       vertical_pattern="false"
       hide_knot="false"
       fuse_tolerance="0" />
    <inkscape:path-effect
       effect="spiro"
       id="path-effect2028"
       is_visible="true"
       lpeversion="1" />
    <inkscape:path-effect
       effect="skeletal"
       id="path-effect2003"
       is_visible="true"
       lpeversion="1"
       pattern="m 32.74683,30.798734 c 0,-0.34408 0.279254,-0.62333 0.623333,-0.62333 0.34408,0 0.623333,0.27925 0.623333,0.62333 0,0.34408 -0.279253,0.62334 -0.623333,0.62334 -0.344079,0 -0.623333,-0.27926 -0.623333,-0.62334 z"
       copytype="single_stretched"
       prop_scale="1"
       scale_y_rel="false"
       spacing="0"
       normal_offset="0"
       tang_offset="0"
       prop_units="false"
       vertical_pattern="false"
       hide_knot="false"
       fuse_tolerance="0" />
    <inkscape:path-effect
       effect="spiro"
       id="path-effect2001"
       is_visible="true"
       lpeversion="1" />
    <inkscape:path-effect
       effect="skeletal"
       id="path-effect1997"
       is_visible="true"
       lpeversion="1"
       pattern="M 0,5 C 0,2.24 2.24,0 5,0 7.76,0 10,2.24 10,5 10,7.76 7.76,10 5,10 2.24,10 0,7.76 0,5 Z"
       copytype="single_stretched"
       prop_scale="1"
       scale_y_rel="false"
       spacing="0"
       normal_offset="0"
       tang_offset="0"
       prop_units="false"
       vertical_pattern="false"
       hide_knot="false"
       fuse_tolerance="0" />
    <inkscape:path-effect
       effect="spiro"
       id="path-effect1995"
       is_visible="true"
       lpeversion="1" />
    <inkscape:path-effect
       effect="skeletal"
       id="path-effect1991"
       is_visible="true"
       lpeversion="1"
       pattern="M 0,5 C 0,2.24 2.24,0 5,0 7.76,0 10,2.24 10,5 10,7.76 7.76,10 5,10 2.24,10 0,7.76 0,5 Z"
       copytype="single_stretched"
       prop_scale="1"
       scale_y_rel="false"
       spacing="0"
       normal_offset="0"
       tang_offset="0"
       prop_units="false"
       vertical_pattern="false"
       hide_knot="false"
       fuse_tolerance="0" />
    <inkscape:path-effect
       effect="spiro"
       id="path-effect1989"
       is_visible="true"
       lpeversion="1" />
    <inkscape:path-effect
       effect="skeletal"
       id="path-effect1985"
       is_visible="true"
       lpeversion="1"
       pattern="M 0,5 C 0,2.24 2.24,0 5,0 7.76,0 10,2.24 10,5 10,7.76 7.76,10 5,10 2.24,10 0,7.76 0,5 Z"
       copytype="single_stretched"
       prop_scale="1"
       scale_y_rel="false"
       spacing="0"
       normal_offset="0"
       tang_offset="0"
       prop_units="false"
       vertical_pattern="false"
       hide_knot="false"
       fuse_tolerance="0" />
    <inkscape:path-effect
       effect="spiro"
       id="path-effect1983"
       is_visible="true"
       lpeversion="1" />
    <inkscape:path-effect
       effect="skeletal"
       id="path-effect1979"
       is_visible="true"
       lpeversion="1"
       pattern="m 86.867616,30.834546 c 0,-0.423998 0.344114,-0.768112 0.768112,-0.768112 0.423998,0 0.768112,0.344114 0.768112,0.768112 0,0.423998 -0.344114,0.768112 -0.768112,0.768112 -0.423998,0 -0.768112,-0.344114 -0.768112,-0.768112 z"
       copytype="single_stretched"
       prop_scale="1"
       scale_y_rel="false"
       spacing="0"
       normal_offset="0"
       tang_offset="0"
       prop_units="false"
       vertical_pattern="false"
       hide_knot="false"
       fuse_tolerance="0" />
    <inkscape:path-effect
       effect="spiro"
       id="path-effect1977"
       is_visible="true"
       lpeversion="1" />
    <inkscape:path-effect
       effect="skeletal"
       id="path-effect1973"
       is_visible="true"
       lpeversion="1"
       pattern="M 0,5 C 0,2.24 2.24,0 5,0 7.76,0 10,2.24 10,5 10,7.76 7.76,10 5,10 2.24,10 0,7.76 0,5 Z"
       copytype="single_stretched"
       prop_scale="1"
       scale_y_rel="false"
       spacing="0"
       normal_offset="0"
       tang_offset="0"
       prop_units="false"
       vertical_pattern="false"
       hide_knot="false"
       fuse_tolerance="0" />
    <inkscape:path-effect
       effect="spiro"
       id="path-effect1971"
       is_visible="true"
       lpeversion="1" />
    <inkscape:path-effect
       effect="skeletal"
       id="path-effect1967"
       is_visible="true"
       lpeversion="1"
       pattern="M 0,5 C 0,2.24 2.24,0 5,0 7.76,0 10,2.24 10,5 10,7.76 7.76,10 5,10 2.24,10 0,7.76 0,5 Z"
       copytype="single_stretched"
       prop_scale="1"
       scale_y_rel="false"
       spacing="0"
       normal_offset="0"
       tang_offset="0"
       prop_units="false"
       vertical_pattern="false"
       hide_knot="false"
       fuse_tolerance="0" />
    <linearGradient
       inkscape:collect="always"
       id="linearGradient1509">
      <stop
         style="stop-color:#6abe30;stop-opacity:1;"
         offset="0"
         id="stop1505" />
      <stop
         style="stop-color:#305616;stop-opacity:1"
         offset="1"
         id="stop1507" />
    </linearGradient>
    <linearGradient
       inkscape:collect="always"
       xlink:href="#linearGradient1509"
       id="linearGradient1511"
       x1="8.4666662"
       y1="22.489584"
       x2="8.4666662"
       y2="27.516665"
       gradientUnits="userSpaceOnUse"
       gradientTransform="translate(6.6666666e-6)" />
  </defs>
  <sodipodi:namedview
     id="base"
     pagecolor="#ffffff"
     bordercolor="#666666"
     borderopacity="1.0"
     inkscape:pageopacity="0.0"
     inkscape:pageshadow="2"
     inkscape:zoom="1.4"
     inkscape:cx="236.36362"
     inkscape:cy="117.69197"
     inkscape:document-units="mm"
     inkscape:current-layer="layer1"
     inkscape:document-rotation="0"
     showgrid="true"
     units="px"
     showguides="true"
     inkscape:guide-bbox="true"
     inkscape:window-width="1920"
     inkscape:window-height="1015"
     inkscape:window-x="1680"
     inkscape:window-y="40"
     inkscape:window-maximized="1"
     inkscape:snap-global="true">
    <sodipodi:guide
       position="0,127"
       orientation="0,-1"
       id="guide833" />
    <inkscape:grid
       type="xygrid"
       id="grid835"
       empspacing="32" />
    <sodipodi:guide
       position="135.46666,67.733332"
       orientation="0,1"
       id="guide837"
       inkscape:label=""
       inkscape:locked="false"
       inkscape:color="rgb(0,0,255)" />
    <sodipodi:guide
       position="1.0583333,47.625001"
       orientation="0,-1"
       id="guide1394" />
    <sodipodi:guide
       position="1.0583333,25.400001"
       orientation="0,-1"
       id="guide1398" />
    <sodipodi:guide
       position="143.93333,33.866666"
       orientation="0,-1"
       id="guide3028" />
  </sodipodi:namedview>
  <metadata
     id="metadata5">
    <rdf:RDF>
      <cc:Work
         rdf:about="">
        <dc:format>image/svg+xml</dc:format>
        <dc:type
           rdf:resource="http://purl.org/dc/dcmitype/StillImage" />
        <dc:title></dc:title>
      </cc:Work>
    </rdf:RDF>
  </metadata>
  <g
     inkscape:label="Calque 1"
     inkscape:groupmode="layer"
     id="layer1">
    <rect
       style="fill:#dcb448;fill-opacity:1;stroke-width:0.79375;stroke-linejoin:round;paint-order:markers stroke fill"
       id="rect1513"
       width="135.46666"
       height="14.816669"
       x="0"
       y="27.516665" />
    <path
       style="fill:url(#linearGradient1511);fill-opacity:1;stroke-width:0.79375;stroke-linejoin:round;paint-order:markers stroke fill"
       d="m 6.6666666e-6,20.108332 c 0,0 2.6196590333334,-0.785622 3.9687500333334,-0.793748 1.4356754,-0.0086 4.2333332,0.79375 4.2333332,0.79375 0,0 2.0858601,-0.855784 3.1750001,-0.79375 0.752314,0.04285 2.116667,0.793748 2.116667,0.793748 0,0 0.560194,-1.030741 1.058333,-1.058331 0.563855,-0.03123 1.322917,1.058331 1.322917,1.058331 0,0 1.924648,-0.505846 2.910416,-0.529165 1.334251,-0.03156 3.96875,0.529165 3.96875,0.529165 0,0 2.102453,-0.557873 3.175,-0.529165 0.812821,0.02176 2.38125,0.529165 2.38125,0.529165 0,0 1.546181,-0.741759 2.38125,-0.793748 1.346508,-0.08383 3.96875,0.793748 3.96875,0.793748 0,0 1.184027,-0.724189 1.852084,-0.793748 1.341861,-0.139717 3.968749,0.793748 3.968749,0.793748 0,0 1.515764,-1.131978 2.38125,-1.058331 0.633689,0.05392 1.5875,1.058331 1.5875,1.058331 0,0 3.687049,-0.873145 5.55625,-0.793748 1.175601,0.04994 3.439584,0.793748 3.439584,0.793748 0,0 2.813826,-0.614882 4.233333,-0.529165 0.725948,0.04384 2.116667,0.529165 2.116667,0.529165 0,0 1.405768,-0.279083 2.116666,-0.264581 0.536354,0.01094 1.5875,0.264581 1.5875,0.264581 0,0 3.332285,-0.868687 5.027083,-0.793748 1.08984,0.04819 3.175,0.793748 3.175,0.793748 0,0 3.873906,-0.60171 5.820834,-0.529165 1.072188,0.03995 3.175,0.529165 3.175,0.529165 0,0 4.750867,-0.914015 7.14375,-0.793748 1.26116,0.06339 3.704166,0.793748 3.704166,0.793748 0,0 4.394484,-0.844508 6.614583,-0.793748 0.536326,0.01226 1.088624,0.06731 1.587495,0.264583 0.295713,0.116937 0.793763,0.529165 0.793763,0.529165 0,0 2.97544,-0.793748 4.49791,-0.793748 1.52247,0 4.49792,0.79375 4.49792,0.79375 0,0 2.98851,-0.555992 4.49792,-0.529167 1.15983,0.02061 3.43958,0.529165 3.43958,0.529165 0,0 1.56814,-0.529165 2.38125,-0.529165 0.81311,0 2.38125,0.529165 2.38125,0.529165 0,0 2.09598,-0.954311 3.175,-0.793748 0.50866,0.07569 1.32292,0.793748 1.32292,0.793748 0,0 2.26758,-0.898387 3.43958,-0.793748 0.66901,0.05973 1.85208,0.793748 1.85208,0.793748 0,0 1.35801,-0.569922 2.06834,-0.528094 0.48896,0.02879 1.37124,0.528094 1.37124,0.528094 v 7.408333 H 6.6666666e-6 Z"
       id="path1400"
       sodipodi:nodetypes="cacacacacacacacacacacacacacacaacacacacacacacccc" />
    <path
       style="fill:#305616;fill-opacity:1;stroke-width:0.79375;stroke-linejoin:round;paint-order:markers stroke fill"
       d="m 135.46667,25.929167 c 0,0 -3.96975,-1.416007 -5.92866,-0.994172 -0.89176,0.192034 -2.27343,1.523338 -2.27343,1.523338 0,0 -1.49259,-0.883816 -2.32753,-0.941815 -0.9255,-0.06429 -2.69955,0.677232 -2.69955,0.677232 0,0 -1.01618,-0.870572 -1.64383,-0.945314 -0.80185,-0.09549 -2.32492,0.680731 -2.32492,0.680731 0,0 -1.66815,-0.967427 -2.59267,-0.986964 -1.04097,-0.022 -2.96358,0.986964 -2.96358,0.986964 0,0 -0.52917,-1.058334 -3.175,-0.529165 -0.7389,0.147781 -2.11667,0.793748 -2.11667,0.793748 0,0 -1.77496,-0.384671 -2.67789,-0.432919 -1.04766,-0.05598 -3.14294,0.168336 -3.14294,0.168336 0,0 -1.666126,-0.527586 -2.524948,-0.514217 -1.128746,0.01757 -3.295885,0.7788 -3.295885,0.7788 0,0 -1.817934,-0.859252 -2.799079,-0.980944 -2.757171,-0.341973 -2.492588,1.245527 -2.492588,1.245527 0,0 -2.70189,-0.751287 -4.091273,-0.84284 -1.459042,-0.09614 -4.37539,0.313674 -4.37539,0.313674 0,0 -2.813826,-0.614882 -4.233333,-0.529165 -0.725948,0.04384 -2.116667,0.529165 -2.116667,0.529165 0,0 -1.405768,-0.279083 -2.116666,-0.264581 -0.536354,0.01094 -1.5875,0.264581 -1.5875,0.264581 0,0 -3.332285,-0.868687 -5.027083,-0.793748 -1.08984,0.04819 -3.175,0.793748 -3.175,0.793748 0,0 -2.652021,-0.344948 -3.985929,-0.357082 -1.674136,-0.01523 -5.009905,0.357082 -5.009905,0.357082 0,0 -4.750867,-0.914015 -7.14375,-0.793748 -1.26116,0.06339 -3.704166,0.793748 -3.704166,0.793748 0,0 -4.394484,-0.844508 -6.614583,-0.793748 -0.536326,0.01226 -1.088625,0.06731 -1.587501,0.264583 -0.295709,0.116936 -0.793754,0.529165 -0.793754,0.529165 0,0 -2.97544,-0.793748 -4.49791,-0.793748 -1.522473,0 -4.49792,0.79375 -4.49792,0.79375 0,0 -2.988518,-0.555993 -4.49793,-0.529167 -1.159832,0.02061 -3.43958,0.529165 -3.43958,0.529165 0,0 -1.568138,-0.529165 -2.38125,-0.529165 -0.813112,0 -2.38125,0.529165 -2.38125,0.529165 0,0 -2.095976,-0.954311 -3.175,-0.793748 -0.5086575,0.07569 -1.32292,0.793748 -1.32292,0.793748 0,0 -2.2675825,-0.898387 -3.43958,-0.793748 -0.6690064,0.05973 -1.85208,0.793748 -1.85208,0.793748 0,0 -1.7529928,-1.018848 -2.64583,-0.793748 C 0.43092658,25.226893 0,25.929167 0,25.929167 v 1.587498 l 135.46667,2e-6 z"
       id="path1400-5"
       sodipodi:nodetypes="cacacacacscacacscacacacacacacaacacacacacacacccc" />
    <ellipse
       style="fill:#6abe30;fill-opacity:1;stroke-width:0.79375;stroke-linejoin:round;paint-order:markers stroke fill"
       id="path1422"
       cx="19.253294"
       cy="18.927742"
       rx="0.39687499"
       ry="0.79374999" />
    <ellipse
       style="fill:#6abe30;fill-opacity:1;stroke-width:0.79375;stroke-linejoin:round;paint-order:markers stroke fill"
       id="path1422-6"
       cx="12.825134"
       cy="23.394392"
       rx="0.39687499"
       ry="0.79374999"
       transform="rotate(-15.874515)"
       inkscape:transform-center-x="-0.14512081"
       inkscape:transform-center-y="0.23762076" />
    <ellipse
       style="fill:#6abe30;fill-opacity:1;stroke-width:0.79375;stroke-linejoin:round;paint-order:markers stroke fill"
       id="path1422-2"
       cx="24.159277"
       cy="13.287106"
       rx="0.39687499"
       ry="0.79374999"
       transform="rotate(15.29596)" />
    <ellipse
       style="fill:#305616;fill-opacity:1;stroke-width:0.79375;stroke-linejoin:round;paint-order:markers stroke fill"
       id="path1717"
       cx="7.9193931"
       cy="25.413128"
       rx="3.1450009"
       ry="2.159133" />
    <ellipse
       style="fill:#305616;fill-opacity:1;stroke-width:0.79375;stroke-linejoin:round;paint-order:markers stroke fill"
       id="path1715"
       cx="58.838829"
       cy="25.915855"
       rx="3.4802215"
       ry="1.6700277" />
    <path
       id="path1400-5-9"
       style="fill:#453228;fill-opacity:1;stroke-width:0.79375;stroke-linejoin:round;paint-order:markers stroke fill"
       d="m 93.09468,26.865448 c -0.63369,0.05392 -2.078015,0.122052 -2.078015,0.122052 -3.17426,-0.780247 -5.291665,-0.264583 -8.995833,0 -2.23308,0.287614 -5.291665,-0.529167 -10.054167,0 0,0 -3.360719,-0.475646 -5.027083,-0.79375 -1.238597,-0.236445 -3.175,0.79375 -3.175,0.79375 0,0 -3.954307,0.02929 -5.820833,-0.529167 -0.954254,-0.285508 -3.175,0.529167 -3.175,0.529167 0,0 -4.803296,-1.5897 -7.085989,-0.861913 -1.011585,0.322521 -3.701713,1.017656 -3.701713,1.017656 0,0 -3.046676,-0.724963 -5.209581,-0.221718 -0.539968,0.125635 -0.990516,-1.106543 -3.052717,-0.463192 -0.303558,0.0947 -0.79375,0.529167 -0.79375,0.529167 0,0 -2.940011,-0.515971 -4.462481,-0.515971 -1.522471,0 -4.533352,0.515971 -4.533352,0.515971 0,0 -2.631,0.158039 -3.936218,-0.201594 -1.118337,-0.30814 -4.001282,0.201594 -4.001282,0.201594 0,0 -0.952714,0.361815 -2.38125,-0.529167 -0.689918,-0.430304 -2.38125,0.529167 -2.38125,0.529167 0,0 -1.390127,-0.704617 -2.469147,-0.544055 -0.508659,0.07569 -2.0287691,0.544055 -2.0287691,0.544055 0,0 -1.7141265,-0.325455 -2.8861264,-0.220815 -0.6690101,0.05973 -2.4055402,0.220815 -2.4055402,0.220815 0,0 -1.2982754,-0.710576 -2.1911153,-0.485476 C 0.88564799,26.593494 0,26.9875 0,26.9875 v 0.264583 1.058334 c 0,0 2.61966,0.52104 3.96875,0.529166 1.4356699,0.0086 4.2333332,-0.529166 4.2333332,-0.529166 3.7130678,0.470047 7.1437508,0.264583 10.5833338,0.264583 1.33425,0.03156 3.968749,-0.264583 3.968749,-0.264583 0,0 2.10245,0.557876 3.175,0.529166 0.812821,-0.02176 2.38125,-0.529166 2.38125,-0.529166 0,0 1.54618,0.741762 2.38125,0.79375 1.346509,0.08383 3.96875,-0.79375 3.96875,-0.79375 0,0 1.184026,0.724191 1.852083,0.79375 1.341861,0.139718 3.96875,-0.79375 3.96875,-0.79375 0,0 1.776157,0.435154 2.38125,1.058333 0.143424,0.147711 1.5875,-1.058333 1.5875,-1.058333 0,0 5.490319,1.122878 5.55625,0.79375 0.231118,-1.153741 2.712736,-0.976524 2.712736,-0.976524 0,0 3.540673,0.797657 4.960181,0.71194 0.725947,-0.04384 2.116666,-0.529166 2.116666,-0.529166 0,0 0.593879,-0.422935 2.116667,0.264583 0.488941,0.22075 1.5875,-0.264583 1.5875,-0.264583 0,0 1.815396,0.549804 3.510195,0.474866 1.08984,-0.04819 4.691888,-0.474866 4.691888,-0.474866 0,0 2.076675,0.692719 4.023603,0.620173 1.072187,-0.03995 4.97223,-0.620173 4.97223,-0.620173 0,0 4.750867,0.914016 7.14375,0.79375 1.26116,-0.06339 3.704167,-0.79375 3.704167,-0.79375 0,0 4.394483,0.84451 6.614583,0.79375 0.536326,-0.01226 1.088623,-0.06731 1.587498,-0.264584 0.295707,-0.116935 0.793747,-0.529166 0.793747,-0.529166 0,0 2.97545,0.79375 4.49792,0.79375 1.52247,0 4.49792,-0.79375 4.49792,-0.79375 0,0 2.9885,0.555992 4.49791,0.529166 1.15983,-0.02061 3.43959,-0.529166 3.43959,-0.529166 0,0 1.56814,0.529166 2.38125,0.529166 0.8131,0 2.38125,-0.529166 2.38125,-0.529166 0,0 2.09597,0.954312 3.175,0.79375 0.50865,-0.07569 1.32291,-0.79375 1.32291,-0.79375 0,0 2.26758,0.89839 3.43959,0.79375 0.669,-0.05973 1.85208,-0.79375 1.85208,-0.79375 0,0 1.75299,1.018849 2.64583,0.79375 0.36282,-0.09147 0.79375,-0.79375 0.79375,-0.79375 V 27.516667 26.9875 c 0,0 -2.35507,-0.256458 -3.70416,-0.264583 -1.43567,-0.0086 -4.49792,0.264583 -4.49792,0.264583 -2.00246,-0.762544 -3.43958,-0.264583 -5.29167,0 0,0 -0.80832,-0.503268 -1.30646,-0.530858 -0.56386,-0.03123 -1.07479,0.530858 -1.07479,0.530858 0,0 -1.92465,-0.505849 -2.91041,-0.529167 -1.33425,-0.03156 -3.96875,0.529167 -3.96875,0.529167 0,0 -2.10246,-0.557877 -3.175,-0.529167 -0.81283,0.02176 -2.38125,0.529167 -2.38125,0.529167 0,0 -1.72468,-0.173207 -2.55975,-0.225195 -1.34651,-0.08383 -3.79025,0.225195 -3.79025,0.225195 0,0 -1.184027,-0.724191 -1.852085,-0.79375 -1.341861,-0.139719 -3.96875,0.79375 -3.96875,0.79375 0,0 -1.025248,-0.195699 -1.890735,-0.122052 z"
       sodipodi:nodetypes="scccscscscsscscscscscscscccccccscscscscscscscscscscsscscscscscscsccccccscscscscscs" />
    <path
       id="path1400-5-9-0-2"
       style="fill:#000000;fill-opacity:0.05;stroke-width:0.79375;stroke-linejoin:round;paint-order:markers stroke fill"
       d="m 90.4875,41.275 c 0,0 -3.353713,-1.630437 -5.027085,-0.79375 -1.058332,0.529167 -3.439582,1.5875 -3.439582,1.5875 0,0 -3.166097,-2.262787 -4.233334,-1.322917 -0.492891,0.434068 -2.116667,0.529167 -2.116667,0.529167 0,0 -1.41304,-0.238099 -2.08274,-0.477034 -0.678327,-0.242013 -1.621427,0.477034 -1.621427,0.477034 0,0 -3.360719,-0.475646 -5.027083,-0.79375 -1.238597,-0.236445 -3.175,0.79375 -3.175,0.79375 0,0 -3.954307,0.02929 -5.820833,-0.529167 -0.954254,-0.285508 -3.175,0.529167 -3.175,0.529167 0,0 -4.803296,-1.5897 -7.085989,-0.861913 -1.011585,0.322521 -3.701713,1.017656 -3.701713,1.017656 0,0 -3.046676,-0.724963 -5.209581,-0.221718 -0.539968,0.125635 -0.990516,-1.106543 -3.052717,-0.463192 -0.303558,0.0947 -0.79375,0.529167 -0.79375,0.529167 0,0 -2.940011,-0.515971 -4.462481,-0.515971 -1.522471,0 -4.533352,0.515971 -4.533352,0.515971 0,0 -2.631,0.158039 -3.936218,-0.201594 -1.118337,-0.30814 -4.001282,0.201594 -4.001282,0.201594 0,0 -0.952714,0.361815 -2.38125,-0.529167 -0.689918,-0.430304 -2.38125,0.529167 -2.38125,0.529167 0,0 -1.390127,-0.704617 -2.469147,-0.544055 C 10.25136,40.806635 8.73125,41.275 8.73125,41.275 c 0,0 -1.714127,-0.325455 -2.886127,-0.220815 -0.66901,0.05973 -2.40554,0.220815 -2.40554,0.220815 0,0 -1.298275,-0.710576 -2.191115,-0.485476 C 0.885648,40.880994 0,41.275 0,41.275 v 0.264583 6.879167 c 0,0 2.61966,0.785624 3.96875,0.79375 1.43567,0.0086 4.233333,-0.79375 4.233333,-0.79375 0,0 2.08586,0.855784 3.175,0.79375 0.75232,-0.04285 2.116666,-0.79375 2.116666,-0.79375 0,0 0.688555,0.423375 1.186695,0.450966 0.56386,0.03123 1.194555,-0.450966 1.194555,-0.450966 0,0 1.924647,0.505849 2.910417,0.529166 1.33425,0.03156 3.96875,-0.529166 3.96875,-0.529166 0,0 2.10245,0.557876 3.175,0.529166 0.812821,-0.02176 2.38125,-0.529166 2.38125,-0.529166 0,0 1.54618,0.741762 2.38125,0.79375 1.346509,0.08383 3.96875,-0.79375 3.96875,-0.79375 0,0 1.184026,0.724191 1.852083,0.79375 1.341861,0.139718 3.96875,-0.79375 3.96875,-0.79375 0,0 1.776157,0.435154 2.38125,1.058333 0.143424,0.147711 1.5875,-1.058333 1.5875,-1.058333 0,0 5.490319,1.122878 5.55625,0.79375 0.231118,-1.153741 2.712736,-0.976524 2.712736,-0.976524 0,0 3.540673,0.797657 4.960181,0.71194 0.725947,-0.04384 2.116666,-0.529166 2.116666,-0.529166 0,0 0.593879,-0.422935 2.116667,0.264583 0.488941,0.22075 1.5875,-0.264583 1.5875,-0.264583 0,0 1.815396,0.549804 3.510195,0.474866 1.08984,-0.04819 4.691888,-0.474866 4.691888,-0.474866 0,0 2.076675,0.692719 4.023603,0.620173 1.072187,-0.03995 4.97223,-0.620173 4.97223,-0.620173 0,0 4.750867,0.914016 7.14375,0.79375 1.26116,-0.06339 3.704167,-0.79375 3.704167,-0.79375 0,0 4.394483,0.84451 6.614583,0.79375 0.536326,-0.01226 1.088623,-0.06731 1.587498,-0.264584 0.295707,-0.116935 0.793747,-0.529166 0.793747,-0.529166 0,0 2.97545,0.79375 4.49792,0.79375 1.52247,0 4.49792,-0.79375 4.49792,-0.79375 0,0 2.9885,0.555992 4.49791,0.529166 1.15983,-0.02061 3.43959,-0.529166 3.43959,-0.529166 0,0 1.56814,0.529166 2.38125,0.529166 0.8131,0 2.38125,-0.529166 2.38125,-0.529166 0,0 2.09597,0.954312 3.175,0.79375 0.50865,-0.07569 1.32291,-0.79375 1.32291,-0.79375 0,0 2.26758,0.89839 3.43959,0.79375 0.669,-0.05973 1.85208,-0.79375 1.85208,-0.79375 0,0 1.75299,1.018849 2.64583,0.79375 0.36282,-0.09147 0.79375,-0.79375 0.79375,-0.79375 V 41.804167 41.275 c 0,0 -2.61965,-0.256458 -3.96874,-0.264583 -1.43567,-0.0086 -4.23334,0.79375 -4.23334,0.79375 0,0 -1.39454,-0.776526 -2.47203,-0.947069 -0.70297,-0.111265 -2.81964,0.417902 -2.81964,0.417902 0,0 -0.58588,-0.383649 -1.08402,-0.411239 -0.56386,-0.03123 -1.29723,0.411239 -1.29723,0.411239 0,0 -1.84042,-0.100785 -2.82618,-0.124103 -1.33425,-0.03156 -4.84673,0.388686 -4.84673,0.388686 0,0 -0.76381,-0.36821 -1.83635,-0.3395 -0.81283,0.02176 -2.66157,0.604084 -2.66157,0.604084 0,0 -1.91114,-0.987214 -2.6959,-0.854954 -1.33035,0.224214 -3.91868,0.854954 -3.91868,0.854954 0,0 -1.322917,-1.058334 -1.852085,-1.322917 -1.206686,-0.603341 -3.96875,0.79375 -3.96875,0.79375 -1.885369,-0.948685 -3.704163,-0.264583 -4.497915,0 z"
       sodipodi:nodetypes="cscscscscscscsscscscscscscscccccscscscscscscscscscscscscscsscscscscscscscccccscscscscscscc" />
    <path
       style="fill:#6abe30;fill-opacity:1;stroke-width:0.79375;stroke-linejoin:round;paint-order:markers stroke fill"
       d="m 135.46666,42.333333 c 0,0 -2.61966,-0.785622 -3.96875,-0.793748 -1.43568,-0.0086 -4.23333,0.79375 -4.23333,0.79375 0,0 -2.08586,-0.855784 -3.175,-0.79375 -0.75232,0.04285 -2.11667,0.793748 -2.11667,0.793748 0,0 -0.56019,-1.030741 -1.05833,-1.058331 -0.56386,-0.03123 -1.32292,1.058331 -1.32292,1.058331 0,0 -1.92465,-0.505846 -2.91042,-0.529165 -1.33425,-0.03156 -3.96875,0.529165 -3.96875,0.529165 0,0 -2.10245,-0.557873 -3.175,-0.529165 -0.81282,0.02176 -2.38125,0.529165 -2.38125,0.529165 0,0 -1.54618,-0.741759 -2.38125,-0.793748 -1.3465,-0.08383 -3.96875,0.793748 -3.96875,0.793748 0,0 -1.184023,-0.724189 -1.85208,-0.793748 -1.341861,-0.139717 -3.968749,0.793748 -3.968749,0.793748 0,0 -1.515764,-1.131978 -2.38125,-1.058331 -0.633689,0.05392 -1.5875,1.058331 -1.5875,1.058331 0,0 -3.687049,-0.873145 -5.55625,-0.793748 -1.175601,0.04994 -3.439584,0.793748 -3.439584,0.793748 0,0 -2.813826,-0.614882 -4.233333,-0.529165 -0.725948,0.04384 -2.116667,0.529165 -2.116667,0.529165 0,0 -1.405768,-0.279083 -2.116666,-0.264581 -0.536354,0.01094 -1.5875,0.264581 -1.5875,0.264581 0,0 -3.332285,-0.868687 -5.027083,-0.793748 -1.08984,0.04819 -3.175,0.793748 -3.175,0.793748 0,0 -3.873906,-0.60171 -5.820834,-0.529165 -1.072188,0.03995 -3.175,0.529165 -3.175,0.529165 0,0 -4.750867,-0.914015 -7.14375,-0.793748 -1.26116,0.06339 -3.704166,0.793748 -3.704166,0.793748 0,0 -4.394484,-0.844508 -6.614583,-0.793748 -0.536326,0.01226 -1.088624,0.06731 -1.5875,0.264583 -0.295705,0.116937 -0.793755,0.529165 -0.793755,0.529165 0,0 -2.97544,-0.793748 -4.49791,-0.793748 -1.52247,0 -4.49792,0.79375 -4.49792,0.79375 0,0 -2.98851,-0.555992 -4.49792,-0.529167 -1.15983,0.02061 -3.43958,0.529165 -3.43958,0.529165 0,0 -1.56814,-0.529165 -2.38125,-0.529165 -0.81311,0 -2.38125,0.529165 -2.38125,0.529165 0,0 -2.09598,-0.954311 -3.175,-0.793748 -0.50866,0.07569 -1.32292,0.793748 -1.32292,0.793748 0,0 -2.26758,-0.898387 -3.43958,-0.793748 -0.66901,0.05973 -1.85208,0.793748 -1.85208,0.793748 0,0 -1.75299,-1.018848 -2.64583,-0.793748 C 0.43093,41.631055 0,42.333333 0,42.333333 v 7.408333 h 135.46666 z"
       id="path1400-0"
       sodipodi:nodetypes="cacacacacacacacacacacacacacacaacacacacacacacccc" />
    <path
       style="fill:#43791f;fill-opacity:1;stroke-width:0.79375;stroke-linejoin:round;paint-order:markers stroke fill"
       d="m 0,49.741667 c 0,0 2.619659,-0.785622 3.96875,-0.793748 1.4356753,-0.0086 4.2333333,0.79375 4.2333333,0.79375 0,0 2.0858597,-0.855784 3.1749997,-0.79375 0.752314,0.04285 2.116667,0.793748 2.116667,0.793748 0,0 0.560194,-1.030741 1.058333,-1.058331 0.563855,-0.03123 1.322917,1.058331 1.322917,1.058331 0,0 1.924648,-0.505846 2.910416,-0.529165 1.334251,-0.03156 3.96875,0.529165 3.96875,0.529165 0,0 2.102453,-0.557873 3.175,-0.529165 0.812821,0.02176 2.38125,0.529165 2.38125,0.529165 0,0 1.546181,-0.741759 2.38125,-0.793748 1.346508,-0.08383 3.96875,0.793748 3.96875,0.793748 0,0 1.184027,-0.724189 1.852084,-0.793748 1.341861,-0.139717 3.968749,0.793748 3.968749,0.793748 0,0 1.515764,-1.131978 2.38125,-1.058331 0.633689,0.05392 1.5875,1.058331 1.5875,1.058331 0,0 3.687049,-0.873145 5.55625,-0.793748 1.175601,0.04994 3.439584,0.793748 3.439584,0.793748 0,0 2.813826,-0.614882 4.233333,-0.529165 0.725948,0.04384 2.116667,0.529165 2.116667,0.529165 0,0 1.405768,-0.279083 2.116666,-0.264581 0.536354,0.01094 1.5875,0.264581 1.5875,0.264581 0,0 3.332285,-0.868687 5.027083,-0.793748 1.08984,0.04819 3.175,0.793748 3.175,0.793748 0,0 3.873906,-0.60171 5.820834,-0.529165 1.072188,0.03995 3.175,0.529165 3.175,0.529165 0,0 4.750867,-0.914015 7.14375,-0.793748 1.26116,0.06339 3.704166,0.793748 3.704166,0.793748 0,0 4.394487,-0.844508 6.614587,-0.793748 0.53632,0.01226 1.08862,0.06731 1.5875,0.264583 0.295701,0.116937 0.793751,0.529165 0.793751,0.529165 0,0 2.97544,-0.793748 4.49791,-0.793748 1.52247,0 4.49792,0.79375 4.49792,0.79375 0,0 2.98851,-0.555992 4.49792,-0.529167 1.15983,0.02061 3.43958,0.529165 3.43958,0.529165 0,0 1.56814,-0.529165 2.38125,-0.529165 0.81311,0 2.38125,0.529165 2.38125,0.529165 0,0 2.09598,-0.954311 3.175,-0.793748 0.50866,0.07569 1.32292,0.793748 1.32292,0.793748 0,0 2.26758,-0.898387 3.43958,-0.793748 0.66901,0.05973 1.85208,0.793748 1.85208,0.793748 0,0 1.75299,-1.018848 2.64583,-0.793748 0.36282,0.09147 0.79375,0.793748 0.79375,0.793748 V 57.15 H 0 Z"
       id="path1400-6"
       sodipodi:nodetypes="cacacacacacacacacacacacacacacaacacacacacacacccc" />
    <path
       id="path1400-5-9-0"
       style="fill:#305616;fill-opacity:1;stroke-width:0.79375;stroke-linejoin:round;paint-order:markers stroke fill"
       d="m 92.604165,53.975 c -0.63369,0.05392 -1.5875,1.058333 -1.5875,1.058333 0,0 -3.687048,-0.873146 -5.55625,-0.79375 -1.175602,0.04994 -3.439583,0.79375 -3.439583,0.79375 0,0 -3.166096,-1.469037 -4.233333,-0.529167 -0.492891,0.434068 -2.116667,0.529167 -2.116667,0.529167 0,0 -1.41304,-0.238099 -2.08274,-0.477034 -0.678327,-0.242013 -1.621427,0.477034 -1.621427,0.477034 0,0 -3.360719,-0.475646 -5.027083,-0.79375 -1.238597,-0.236445 -3.175,0.79375 -3.175,0.79375 0,0 -3.954307,0.02929 -5.820833,-0.529167 -0.954254,-0.285508 -3.175,0.529167 -3.175,0.529167 0,0 -4.803296,-1.5897 -7.085989,-0.861913 -1.011585,0.322521 -3.701713,1.017656 -3.701713,1.017656 0,0 -3.046676,-0.724963 -5.209581,-0.221718 -0.539968,0.125635 -0.990516,-1.106543 -3.052717,-0.463192 -0.303558,0.0947 -0.79375,0.529167 -0.79375,0.529167 0,0 -2.940011,-0.515971 -4.462481,-0.515971 -1.522471,0 -4.533352,0.515971 -4.533352,0.515971 0,0 -2.631,0.158039 -3.936218,-0.201594 -1.118337,-0.30814 -4.001282,0.201594 -4.001282,0.201594 0,0 -0.952714,0.361815 -2.38125,-0.529167 -0.689918,-0.430304 -2.38125,0.529167 -2.38125,0.529167 0,0 -1.390127,-0.704617 -2.469147,-0.544055 -0.508659,0.07569 -2.0287691,0.544055 -2.0287691,0.544055 0,0 -1.7141265,-0.325455 -2.8861264,-0.220815 -0.6690101,0.05973 -2.4055402,0.220815 -2.4055402,0.220815 0,0 -1.2982754,-0.710576 -2.1911153,-0.485476 C 0.88564799,54.639327 0,55.033333 0,55.033333 v 0.264583 6.879167 c 0,0 2.6196599,0.785624 3.9687499,0.79375 1.4356699,0.0086 4.2333333,-0.79375 4.2333333,-0.79375 0,0 2.0858598,0.855784 3.1749998,0.79375 0.75232,-0.04285 2.116666,-0.79375 2.116666,-0.79375 0,0 0.688555,0.423375 1.186695,0.450966 0.56386,0.03123 1.194555,-0.450966 1.194555,-0.450966 0,0 1.924647,0.505849 2.910417,0.529166 1.33425,0.03156 3.96875,-0.529166 3.96875,-0.529166 0,0 2.10245,0.557876 3.175,0.529166 0.812821,-0.02176 2.38125,-0.529166 2.38125,-0.529166 0,0 1.54618,0.741762 2.38125,0.79375 1.346509,0.08383 3.96875,-0.79375 3.96875,-0.79375 0,0 1.184026,0.724191 1.852083,0.79375 1.341861,0.139718 3.96875,-0.79375 3.96875,-0.79375 0,0 1.776157,0.435154 2.38125,1.058333 0.143424,0.147711 1.5875,-1.058333 1.5875,-1.058333 0,0 5.490319,1.122878 5.55625,0.79375 0.231118,-1.153741 2.712736,-0.976524 2.712736,-0.976524 0,0 3.540673,0.797657 4.960181,0.71194 0.725947,-0.04384 2.116666,-0.529166 2.116666,-0.529166 0,0 0.593879,-0.422935 2.116667,0.264583 0.488941,0.22075 1.5875,-0.264583 1.5875,-0.264583 0,0 1.815396,0.549804 3.510195,0.474866 1.08984,-0.04819 4.691888,-0.474866 4.691888,-0.474866 0,0 2.076675,0.692719 4.023603,0.620173 1.072187,-0.03995 4.97223,-0.620173 4.97223,-0.620173 0,0 4.750867,0.914016 7.14375,0.79375 1.26116,-0.06339 3.704167,-0.79375 3.704167,-0.79375 0,0 4.394483,0.84451 6.614583,0.79375 0.536326,-0.01226 1.088623,-0.06731 1.587498,-0.264584 0.295707,-0.116935 0.793747,-0.529166 0.793747,-0.529166 0,0 2.97545,0.79375 4.49792,0.79375 1.52247,0 4.49792,-0.79375 4.49792,-0.79375 0,0 2.9885,0.555992 4.49791,0.529166 1.15983,-0.02061 3.43959,-0.529166 3.43959,-0.529166 0,0 1.56814,0.529166 2.38125,0.529166 0.8131,0 2.38125,-0.529166 2.38125,-0.529166 0,0 2.09597,0.954312 3.175,0.79375 0.50865,-0.07569 1.32291,-0.79375 1.32291,-0.79375 0,0 2.26758,0.89839 3.43959,0.79375 0.669,-0.05973 1.85208,-0.79375 1.85208,-0.79375 0,0 1.75299,1.018849 2.64583,0.79375 0.36282,-0.09147 0.79375,-0.79375 0.79375,-0.79375 V 55.5625 55.033333 c 0,0 -2.61966,-0.785625 -3.96875,-0.79375 -1.43567,-0.0086 -4.23333,0.79375 -4.23333,0.79375 0,0 -2.08586,-0.855784 -3.175,-0.79375 -0.75232,0.04285 -2.11667,0.79375 -2.11667,0.79375 0,0 -0.56019,-1.030743 -1.05833,-1.058333 -0.56386,-0.03123 -1.32292,1.058333 -1.32292,1.058333 0,0 -1.92465,-0.505849 -2.91041,-0.529167 -1.33425,-0.03156 -3.96875,0.529167 -3.96875,0.529167 0,0 -2.10246,-0.557877 -3.175,-0.529167 -0.81283,0.02176 -2.38125,0.529167 -2.38125,0.529167 0,0 -1.54618,-0.741762 -2.38125,-0.79375 -1.34651,-0.08383 -3.96875,0.79375 -3.96875,0.79375 0,0 -1.184027,-0.724191 -1.852085,-0.79375 -1.341861,-0.139719 -3.96875,0.79375 -3.96875,0.79375 0,0 -1.515763,-1.13198 -2.38125,-1.058333 z"
       sodipodi:nodetypes="scscscscscscscsscscscscscscscccccscscscscscscscscscscscscscsscscscscscscscccccscscscscscscs" />
    <ellipse
       style="fill:#6abe30;fill-opacity:1;stroke-width:0.79375;stroke-linejoin:round;paint-order:markers stroke fill"
       id="path1580"
       cx="87.17556"
       cy="18.319422"
       rx="0.26458332"
       ry="1.190625" />
    <ellipse
       style="fill:#6abe30;fill-opacity:1;stroke-width:0.79375;stroke-linejoin:round;paint-order:markers stroke fill"
       id="path1580-6"
       cx="89.53228"
       cy="0.42542097"
       rx="0.26458332"
       ry="1.190625"
       transform="rotate(11.629909)" />
    <path
       id="path1400-5-9-0-2-6"
       style="fill:#000000;fill-opacity:0.05;stroke-width:0.79375;stroke-linejoin:round;paint-order:markers stroke fill"
       d="m 90.4875,30.691667 c 0,0 -3.35371,-1.630437 -5.027081,-0.79375 -1.05834,0.529167 -3.439586,1.5875 -3.439586,1.5875 0,0 -3.166097,-2.262787 -4.233334,-1.322917 -0.492891,0.434068 -2.116667,0.529167 -2.116667,0.529167 0,0 -1.41304,-0.238099 -2.08274,-0.477034 -0.678327,-0.242013 -1.621427,0.477034 -1.621427,0.477034 0,0 -3.360719,-0.475646 -5.027083,-0.79375 -1.238597,-0.236445 -3.175,0.79375 -3.175,0.79375 0,0 -3.954307,0.02929 -5.820833,-0.529167 -0.954254,-0.285508 -3.175,0.529167 -3.175,0.529167 0,0 -4.803296,-1.5897 -7.085989,-0.861913 -1.011585,0.322521 -3.701713,1.017656 -3.701713,1.017656 0,0 -3.046676,-0.724963 -5.209581,-0.221718 -0.539968,0.125635 -0.990516,-1.106543 -3.052717,-0.463192 -0.303558,0.0947 -0.79375,0.529167 -0.79375,0.529167 0,0 -2.940011,-0.515971 -4.462481,-0.515971 -1.522471,0 -4.533352,0.515971 -4.533352,0.515971 0,0 -2.631,0.158039 -3.936218,-0.201594 -1.118337,-0.30814 -4.001282,0.201594 -4.001282,0.201594 0,0 -0.952714,0.361815 -2.38125,-0.529167 -0.689918,-0.430304 -2.38125,0.529167 -2.38125,0.529167 0,0 -1.390127,-0.704617 -2.469147,-0.544055 -0.508659,0.07569 -2.0287693,0.544055 -2.0287693,0.544055 0,0 -1.714127,-0.325455 -2.886127,-0.220815 -0.66901,0.05973 -2.40554,0.220815 -2.40554,0.220815 0,0 -1.2982747,-0.710576 -2.1911147,-0.485476 C 0.885648,30.297661 0,30.691667 0,30.691667 v 0.264583 l 6.6666667e-6,1.5875 c 0,0 2.6196600333333,0.785624 3.9687497333333,0.79375 1.43567,0.0086 4.233333,-0.79375 4.233333,-0.79375 0,0 2.0858606,0.855784 3.1750006,0.79375 0.75232,-0.04285 2.116666,-0.79375 2.116666,-0.79375 0,0 0.688555,0.423375 1.186695,0.450966 0.56386,0.03123 1.194555,-0.450966 1.194555,-0.450966 0,0 1.924647,0.505849 2.910417,0.529166 1.33425,0.03156 3.96875,-0.529166 3.96875,-0.529166 0,0 2.10245,0.557876 3.175,0.529166 0.812821,-0.02176 2.38125,-0.529166 2.38125,-0.529166 0,0 1.54618,0.741762 2.38125,0.79375 1.346509,0.08383 3.96875,-0.79375 3.96875,-0.79375 0,0 1.184026,0.724191 1.852083,0.79375 1.341861,0.139718 3.96875,-0.79375 3.96875,-0.79375 0,0 1.776157,0.435154 2.38125,1.058333 0.143424,0.147711 1.5875,-1.058333 1.5875,-1.058333 0,0 5.490319,1.122878 5.55625,0.79375 0.231118,-1.153741 2.712736,-0.976524 2.712736,-0.976524 0,0 3.540673,0.797657 4.960181,0.71194 0.725947,-0.04384 2.116666,-0.529166 2.116666,-0.529166 0,0 0.593879,-0.422935 2.116667,0.264583 0.488941,0.22075 1.5875,-0.264583 1.5875,-0.264583 0,0 1.815396,0.549804 3.510195,0.474866 1.08984,-0.04819 4.691888,-0.474866 4.691888,-0.474866 0,0 2.076675,0.692719 4.023603,0.620173 1.072187,-0.03995 4.97223,-0.620173 4.97223,-0.620173 0,0 4.750864,0.914016 7.143755,0.79375 1.26116,-0.06339 3.70416,-0.79375 3.70416,-0.79375 0,0 4.394487,0.84451 6.614587,0.79375 0.53632,-0.01226 1.08862,-0.06731 1.58749,-0.264584 0.295716,-0.116935 0.793756,-0.529166 0.793756,-0.529166 0,0 2.97545,0.79375 4.49792,0.79375 1.52247,0 4.49792,-0.79375 4.49792,-0.79375 0,0 2.9885,0.555992 4.49791,0.529166 1.15983,-0.02061 3.43959,-0.529166 3.43959,-0.529166 0,0 1.56814,0.529166 2.38125,0.529166 0.8131,0 2.38125,-0.529166 2.38125,-0.529166 0,0 2.09597,0.954312 3.175,0.79375 0.50865,-0.07569 1.32291,-0.79375 1.32291,-0.79375 0,0 2.26758,0.89839 3.43959,0.79375 0.669,-0.05973 1.85208,-0.79375 1.85208,-0.79375 0,0 1.75299,1.018849 2.64583,0.79375 0.36282,-0.09147 0.79375,-0.79375 0.79375,-0.79375 l -1e-5,-1.322916 v -0.529167 c 0,0 -2.61965,-0.256458 -3.96874,-0.264583 -1.43567,-0.0086 -4.23334,0.79375 -4.23334,0.79375 0,0 -1.39454,-0.776526 -2.47203,-0.947069 -0.70297,-0.111265 -2.81964,0.417902 -2.81964,0.417902 0,0 -0.58588,-0.383649 -1.08402,-0.411239 -0.56386,-0.03123 -1.29723,0.411239 -1.29723,0.411239 0,0 -1.84042,-0.100785 -2.82618,-0.124103 -1.33425,-0.03156 -4.84673,0.388686 -4.84673,0.388686 0,0 -0.76381,-0.36821 -1.83635,-0.3395 -0.81283,0.02176 -2.66157,0.604084 -2.66157,0.604084 0,0 -1.91114,-0.987214 -2.6959,-0.854954 -1.33035,0.224214 -3.91868,0.854954 -3.91868,0.854954 0,0 -1.322923,-1.058334 -1.852083,-1.322917 -1.20669,-0.603341 -3.96875,0.79375 -3.96875,0.79375 -1.885367,-0.948685 -3.704167,-0.264583 -4.497917,0 z"
       sodipodi:nodetypes="cscscscscscscsscscscscscscscccccscscscscscscscscscscscscscsscscscscscscscccccscscscscscscc" />
    <path
       id="path1400-5-9-0-2-6-1"
       style="fill:#000000;fill-opacity:0.05;stroke-width:0.79375;stroke-linejoin:round;paint-order:markers stroke fill"
       d="m 44.97918,38.647405 c 0,0 3.35371,1.630437 5.027081,0.79375 1.05834,-0.529167 3.439586,-1.5875 3.439586,-1.5875 0,0 3.166097,2.262787 4.233334,1.322917 0.492891,-0.434068 2.116667,-0.529167 2.116667,-0.529167 0,0 1.41304,0.238099 2.08274,0.477034 0.678327,0.242013 1.621427,-0.477034 1.621427,-0.477034 0,0 3.360719,0.475646 5.027083,0.79375 1.238597,0.236445 3.175,-0.79375 3.175,-0.79375 0,0 3.954307,-0.02929 5.820833,0.529167 0.954254,0.285508 3.175,-0.529167 3.175,-0.529167 0,0 4.803296,1.5897 7.085989,0.861913 1.011585,-0.322521 3.701713,-1.017656 3.701713,-1.017656 0,0 3.046676,0.724963 5.209581,0.221718 0.539968,-0.125635 0.990516,1.106543 3.052717,0.463192 0.303559,-0.0947 0.793749,-0.529167 0.793749,-0.529167 0,0 2.94001,0.515971 4.46248,0.515971 1.52247,0 4.53335,-0.515971 4.53335,-0.515971 0,0 2.631,-0.158039 3.93622,0.201594 1.11834,0.30814 4.00128,-0.201594 4.00128,-0.201594 0,0 0.95272,-0.361815 2.38125,0.529167 0.68992,0.430304 2.38125,-0.529167 2.38125,-0.529167 0,0 1.39013,0.704617 2.46915,0.544055 0.50866,-0.07569 2.02877,-0.544055 2.02877,-0.544055 0,0 1.71413,0.325455 2.88613,0.220815 0.66901,-0.05973 2.40554,-0.220815 2.40554,-0.220815 0,0 1.29827,0.710576 2.19111,0.485476 0.36282,-0.09147 1.24847,-0.485476 1.24847,-0.485476 v -0.264583 l -1e-5,-1.5875 c 0,0 -2.61966,-0.785624 -3.96875,-0.79375 -1.43567,-0.0086 -4.23333,0.79375 -4.23333,0.79375 0,0 -2.08586,-0.855784 -3.175,-0.79375 -0.75232,0.04285 -2.11667,0.79375 -2.11667,0.79375 0,0 -0.68855,-0.423375 -1.18669,-0.450966 -0.56386,-0.03123 -1.19456,0.450966 -1.19456,0.450966 0,0 -1.92464,-0.505849 -2.91041,-0.529166 -1.33425,-0.03156 -3.96875,0.529166 -3.96875,0.529166 0,0 -2.10245,-0.557876 -3.175,-0.529166 -0.81282,0.02176 -2.38125,0.529166 -2.38125,0.529166 0,0 -1.54618,-0.741762 -2.38125,-0.79375 -1.34651,-0.08383 -3.96875,0.79375 -3.96875,0.79375 0,0 -1.184029,-0.724191 -1.852086,-0.79375 -1.341861,-0.139718 -3.96875,0.79375 -3.96875,0.79375 0,0 -1.776157,-0.435154 -2.38125,-1.058333 -0.143424,-0.147711 -1.5875,1.058333 -1.5875,1.058333 0,0 -5.490319,-1.122878 -5.55625,-0.79375 -0.231118,1.153741 -2.712736,0.976524 -2.712736,0.976524 0,0 -3.540673,-0.797657 -4.960181,-0.71194 -0.725947,0.04384 -2.116666,0.529166 -2.116666,0.529166 0,0 -0.593879,0.422935 -2.116667,-0.264583 -0.488941,-0.22075 -1.5875,0.264583 -1.5875,0.264583 0,0 -1.815396,-0.549804 -3.510195,-0.474866 -1.08984,0.04819 -4.691888,0.474866 -4.691888,0.474866 0,0 -2.076675,-0.692719 -4.023603,-0.620173 -1.072187,0.03995 -4.97223,0.620173 -4.97223,0.620173 0,0 -4.750864,-0.914016 -7.143755,-0.79375 -1.26116,0.06339 -3.70416,0.79375 -3.70416,0.79375 0,0 -4.394489,-0.84451 -6.614589,-0.79375 -0.53632,0.01226 -1.08862,0.06731 -1.58749,0.264584 -0.295714,0.116935 -0.793754,0.529166 -0.793754,0.529166 0,0 -2.97545,-0.79375 -4.49792,-0.79375 -1.52247,0 -4.49792,0.79375 -4.49792,0.79375 0,0 -2.9885,-0.555992 -4.49791,-0.529166 -1.15983,0.02061 -3.4396,0.529166 -3.4396,0.529166 0,0 -1.56814,-0.529166 -2.38125,-0.529166 -0.8131,0 -2.38125,0.529166 -2.38125,0.529166 0,0 -2.09597,-0.954312 -3.175,-0.79375 -0.50865,0.07569 -1.32291,0.79375 -1.32291,0.79375 0,0 -2.26758,-0.89839 -3.43959,-0.79375 -0.669,0.05973 -1.85208,0.79375 -1.85208,0.79375 0,0 -1.75299,-1.018849 -2.64583,-0.79375 C 0.43093,36.093042 0,36.795322 0,36.795322 l 1e-5,1.322916 v 0.529167 c 0,0 2.61965,0.256458 3.96874,0.264583 1.43567,0.0086 4.23334,-0.79375 4.23334,-0.79375 0,0 1.39454,0.776526 2.47203,0.947069 0.70297,0.111265 2.81964,-0.417902 2.81964,-0.417902 0,0 0.58588,0.383649 1.08402,0.411239 0.56386,0.03123 1.29723,-0.411239 1.29723,-0.411239 0,0 1.84042,0.100785 2.82619,0.124103 1.33425,0.03156 4.84673,-0.388686 4.84673,-0.388686 0,0 0.76381,0.36821 1.83635,0.3395 0.81283,-0.02176 2.66157,-0.604084 2.66157,-0.604084 0,0 1.91114,0.987214 2.6959,0.854954 1.33035,-0.224214 3.91868,-0.854954 3.91868,-0.854954 0,0 1.322924,1.058334 1.852084,1.322917 1.20669,0.603341 3.96875,-0.79375 3.96875,-0.79375 1.885366,0.948685 3.704166,0.264583 4.497916,0 z"
       sodipodi:nodetypes="cscscscscscscsscscscscscscscccccscscscscscscscscscscscscscsscscscscscscscccccscscscscscscc" />
    <ellipse
       style="fill:#43791f;fill-opacity:1;stroke-width:0.79375;stroke-linejoin:round;paint-order:markers stroke fill"
       id="path1667"
       cx="5.5126123"
       cy="48.75721"
       rx="3.0069857"
       ry="2.2772913" />
    <ellipse
       style="fill:#43791f;fill-opacity:1;stroke-width:0.79375;stroke-linejoin:round;paint-order:markers stroke fill"
       id="path1669"
       cx="16.47485"
       cy="48.972702"
       rx="2.2036307"
       ry="2.1265635" />
    <ellipse
       style="fill:#43791f;fill-opacity:1;stroke-width:0.79375;stroke-linejoin:round;paint-order:markers stroke fill"
       id="path1671"
       cx="28.928249"
       cy="49.368164"
       rx="2.0881317"
       ry="1.7132049" />
    <ellipse
       style="fill:#43791f;fill-opacity:1;stroke-width:0.79375;stroke-linejoin:round;paint-order:markers stroke fill"
       id="path1673"
       cx="79.673424"
       cy="48.795483"
       rx="6.9217811"
       ry="2.2521126" />
    <ellipse
       style="fill:#43791f;fill-opacity:1;stroke-width:0.79375;stroke-linejoin:round;paint-order:markers stroke fill"
       id="path1675"
       cx="120.50128"
       cy="48.584236"
       rx="4.2141666"
       ry="2.4365134" />
    <ellipse
       style="fill:#43791f;fill-opacity:1;stroke-width:0.79375;stroke-linejoin:round;paint-order:markers stroke fill"
       id="path1677"
       cx="102.29153"
       cy="55.12899"
       rx="5.3020773"
       ry="2.2929254" />
    <ellipse
       style="fill:#43791f;fill-opacity:1;stroke-width:0.79375;stroke-linejoin:round;paint-order:markers stroke fill"
       id="path1679"
       cx="46.606529"
       cy="55.249344"
       rx="3.9561019"
       ry="1.9167501" />
    <ellipse
       style="fill:#43791f;fill-opacity:1;stroke-width:0.79375;stroke-linejoin:round;paint-order:markers stroke fill"
       id="path1681"
       cx="18.796581"
       cy="55.191143"
       rx="3.7300868"
       ry="1.7289919" />
    <ellipse
       style="fill:#6abe30;fill-opacity:1;stroke-width:0.79375;stroke-linejoin:round;paint-order:markers stroke fill"
       id="path1685"
       cx="40.119701"
       cy="41.441967"
       rx="1.8721517"
       ry="1.5791432" />
    <ellipse
       style="fill:#6abe30;fill-opacity:1;stroke-width:0.79375;stroke-linejoin:round;paint-order:markers stroke fill"
       id="path1687"
       cx="12.879578"
       cy="41.63792"
       rx="2.1906886"
       ry="2.0063252" />
    <ellipse
       style="fill:#6abe30;fill-opacity:1;stroke-width:0.79375;stroke-linejoin:round;paint-order:markers stroke fill"
       id="path1689"
       cx="69.088684"
       cy="42.248119"
       rx="4.0774145"
       ry="1.4511497" />
    <ellipse
       style="fill:#6abe30;fill-opacity:1;stroke-width:0.79375;stroke-linejoin:round;paint-order:markers stroke fill"
       id="path1691"
       cx="95.679581"
       cy="41.270882"
       rx="1.8492203"
       ry="2.0070872" />
    <ellipse
       style="fill:#6abe30;fill-opacity:1;stroke-width:0.79375;stroke-linejoin:round;paint-order:markers stroke fill"
       id="path1693"
       cx="115.95683"
       cy="41.554977"
       rx="2.5617092"
       ry="1.7823683" />
    <ellipse
       style="fill:#6abe30;fill-opacity:1;stroke-width:0.79375;stroke-linejoin:round;paint-order:markers stroke fill"
       id="path1695"
       cx="131.16202"
       cy="41.326622"
       rx="2.3495936"
       ry="1.7731273" />
    <ellipse
       style="fill:#6abe30;fill-opacity:1;stroke-width:0.499578;stroke-linejoin:round;paint-order:markers stroke fill"
       id="path1697"
       cx="82.261398"
       cy="19.508728"
       rx="1.6505959"
       ry="1.1038365" />
    <ellipse
       style="fill:#6abe30;fill-opacity:1;stroke-width:0.79375;stroke-linejoin:round;paint-order:markers stroke fill"
       id="path1699"
       cx="57.102325"
       cy="18.685156"
       rx="3.5151045"
       ry="1.9885608" />
    <ellipse
       style="fill:#6abe30;fill-opacity:1;stroke-width:0.79375;stroke-linejoin:round;paint-order:markers stroke fill"
       id="path1701"
       cx="56.292728"
       cy="19.182997"
       rx="1.4206401"
       ry="1.2284005" />
    <ellipse
       style="fill:#6abe30;fill-opacity:1;stroke-width:0.79375;stroke-linejoin:round;paint-order:markers stroke fill"
       id="path1703"
       cx="52.8493"
       cy="19.418623"
       rx="2.4762316"
       ry="0.89555436" />
    <ellipse
       style="fill:#6abe30;fill-opacity:1;stroke-width:0.79375;stroke-linejoin:round;paint-order:markers stroke fill"
       id="path1705"
       cx="59.575851"
       cy="19.721888"
       rx="2.3704348"
       ry="0.72598857" />
    <ellipse
       style="fill:#6abe30;fill-opacity:1;stroke-width:0.79375;stroke-linejoin:round;paint-order:markers stroke fill"
       id="path1707"
       cx="113.52399"
       cy="20.055286"
       rx="3.3117628"
       ry="1.7500075" />
    <ellipse
       style="fill:#6abe30;fill-opacity:1;stroke-width:0.79375;stroke-linejoin:round;paint-order:markers stroke fill"
       id="path1709"
       cx="116.99971"
       cy="19.149096"
       rx="2.8064523"
       ry="2.2352791" />
    <ellipse
       style="fill:#305616;fill-opacity:1;stroke-width:0.79375;stroke-linejoin:round;paint-order:markers stroke fill"
       id="path1711"
       cx="80.63382"
       cy="25.307791"
       rx="1.132013"
       ry="0.7227627" />
    <ellipse
       style="fill:#305616;fill-opacity:1;stroke-width:0.79375;stroke-linejoin:round;paint-order:markers stroke fill"
       id="path1713"
       cx="82.546318"
       cy="25.791513"
       rx="2.2498298"
       ry="0.91954905" />
    <ellipse
       style="fill:#305616;fill-opacity:1;stroke-width:0.79375;stroke-linejoin:round;paint-order:markers stroke fill"
       id="path1719"
       cx="7.26261"
       cy="25.253613"
       rx="0.034024503"
       ry="0.31577167" />
    <ellipse
       style="fill:#453228;fill-opacity:1;stroke-width:0.79375;stroke-linejoin:round;paint-order:markers stroke fill"
       id="path1763"
       cx="76.872032"
       cy="28.950678"
       rx="2.2668767"
       ry="0.75229287" />
    <ellipse
       style="fill:#453228;fill-opacity:1;stroke-width:0.79375;stroke-linejoin:round;paint-order:markers stroke fill"
       id="path1765"
       cx="106.58206"
       cy="29.162924"
       rx="2.5399487"
       ry="1.072392" />
    <ellipse
       style="fill:#453228;fill-opacity:1;stroke-width:0.79375;stroke-linejoin:round;paint-order:markers stroke fill"
       id="path1767"
       cx="124.61414"
       cy="28.7722"
       rx="2.2048593"
       ry="1.4053379" />
    <ellipse
       style="fill:#453228;fill-opacity:1;stroke-width:0.79375;stroke-linejoin:round;paint-order:markers stroke fill"
       id="path1769"
       cx="24.783035"
       cy="26.750267"
       rx="1.4478571"
       ry="0.69114667" />
    <ellipse
       style="fill:#453228;fill-opacity:1;stroke-width:0.79375;stroke-linejoin:round;paint-order:markers stroke fill"
       id="path1771"
       cx="7.2101107"
       cy="26.53344"
       rx="1.3279372"
       ry="0.93625933" />
    <ellipse
       style="fill:#453228;fill-opacity:1;stroke-width:0.79375;stroke-linejoin:round;paint-order:markers stroke fill"
       id="path1773"
       cx="4.3104"
       cy="28.950439"
       rx="1.1512684"
       ry="0.83046687" />
    <ellipse
       style="fill:#dcb448;fill-opacity:1;stroke-width:0.79375;stroke-linejoin:round;paint-order:markers stroke fill"
       id="path1800"
       cx="22.411514"
       cy="36.864727"
       rx="3.4850254"
       ry="1.199801" />
    <ellipse
       style="fill:#dcb448;fill-opacity:1;stroke-width:0.79375;stroke-linejoin:round;paint-order:markers stroke fill"
       id="path1800-7"
       cx="35.730385"
       cy="32.601234"
       rx="3.4850254"
       ry="1.199801" />
    <ellipse
       style="fill:#dcb448;fill-opacity:1;stroke-width:0.79375;stroke-linejoin:round;paint-order:markers stroke fill"
       id="path1800-9"
       cx="8.5751772"
       cy="32.637432"
       rx="3.4850254"
       ry="1.199801" />
    <ellipse
       style="fill:#dcb448;fill-opacity:1;stroke-width:0.79375;stroke-linejoin:round;paint-order:markers stroke fill"
       id="path1800-2"
       cx="67.731277"
       cy="32.530014"
       rx="3.4850254"
       ry="1.199801" />
    <ellipse
       style="fill:#dcb448;fill-opacity:1;stroke-width:0.79375;stroke-linejoin:round;paint-order:markers stroke fill"
       id="path1800-0"
       cx="59.405163"
       cy="36.602848"
       rx="3.4850254"
       ry="1.199801" />
    <ellipse
       style="fill:#dcb448;fill-opacity:1;stroke-width:0.962437;stroke-linejoin:round;paint-order:markers stroke fill"
       id="path1800-23"
       cx="103.92759"
       cy="33.113453"
       rx="4.2256608"
       ry="1.4547819" />
    <ellipse
       style="fill:#dcb448;fill-opacity:1;stroke-width:0.79375;stroke-linejoin:round;paint-order:markers stroke fill"
       id="path1800-75"
       cx="111.78611"
       cy="36.610844"
       rx="3.4850254"
       ry="1.199801" />
    <ellipse
       style="fill:#dcb448;fill-opacity:1;stroke-width:0.79375;stroke-linejoin:round;paint-order:markers stroke fill"
       id="path1800-92"
       cx="87.081268"
       cy="38.682793"
       rx="3.4850254"
       ry="1.199801" />
    <ellipse
       style="fill:#dcb448;fill-opacity:1;stroke-width:0.79375;stroke-linejoin:round;paint-order:markers stroke fill"
       id="path1800-28"
       cx="72.117683"
       cy="36.601685"
       rx="3.4850254"
       ry="1.199801" />
    <ellipse
       style="fill:#dcb448;fill-opacity:1;stroke-width:0.79375;stroke-linejoin:round;paint-order:markers stroke fill"
       id="path1800-97"
       cx="97.512817"
       cy="28.71496"
       rx="3.4850254"
       ry="1.199801" />
    <ellipse
       style="fill:#dcb448;fill-opacity:1;stroke-width:0.79375;stroke-linejoin:round;paint-order:markers stroke fill"
       id="path1800-3"
       cx="115.26588"
       cy="30.749622"
       rx="3.4850254"
       ry="1.199801" />
    <ellipse
       style="fill:#dcb448;fill-opacity:1;stroke-width:0.79375;stroke-linejoin:round;paint-order:markers stroke fill"
       id="path1800-6"
       cx="127.54381"
       cy="36.591484"
       rx="3.4850254"
       ry="1.199801" />
    <ellipse
       style="fill:#dcb448;fill-opacity:1;stroke-width:0.79375;stroke-linejoin:round;paint-order:markers stroke fill"
       id="path1800-7-1"
       cx="46.294399"
       cy="36.755173"
       rx="3.4850254"
       ry="1.199801" />
    <ellipse
       style="fill:#6abe30;fill-opacity:1;stroke-width:1.42002;stroke-linejoin:round;paint-order:markers stroke fill"
       id="path1800-7-2"
       cx="77.20401"
       cy="19.180103"
       rx="4.0783815"
       ry="3.2813258" />
    <ellipse
       style="fill:#6abe30;fill-opacity:1;stroke-width:1.42002;stroke-linejoin:round;paint-order:markers stroke fill"
       id="path1800-7-2-9"
       cx="122.83689"
       cy="19.390606"
       rx="4.0783815"
       ry="3.2813258" />
    <path
       style="fill:#43791f;fill-opacity:1;stroke:none;stroke-width:0.0406459px;stroke-linecap:butt;stroke-linejoin:miter;stroke-opacity:1"
       d="m 94.675736,45.030236 c -0.05647,-0.04524 -0.05394,-0.210787 0.118736,-0.439405 0,0 0,0 0,0 0.166122,-0.217195 0.490977,-0.480177 0.983095,-0.612093 0,0 0,0 0,0 0.336968,-0.09151 0.715112,-0.126417 1.126997,-0.100174 0.687527,0.03925 1.481598,0.225617 2.276932,0.646429 0.166844,0.08757 0.311819,0.172681 0.425421,0.220651 0.244607,0.114546 0.548793,0.169797 0.916733,0.230553 0.53948,0.07992 1.10491,0.121643 1.68161,0.106948 0.14943,-0.0038 0.29739,-0.01135 0.44379,-0.02259 0.38702,-0.02851 0.79135,-0.08704 1.20992,-0.130702 0.57877,-0.06088 1.13467,-0.08887 1.66773,-0.08589 1.04508,0.0055 1.94902,0.133253 2.69077,0.320565 0.34582,0.08724 0.62656,0.177918 0.86746,0.244221 0.66611,0.184659 1.09787,0.250707 1.11265,0.395391 0.0148,0.144683 -0.40121,0.35976 -1.19345,0.395391 -0.31407,0.01364 -0.57983,-0.0032 -0.93664,-0.01628 -0.71424,-0.02604 -1.52582,-0.02342 -2.48977,0.05593 -0.48868,0.04039 -0.9953,0.09947 -1.53159,0.178849 -0.37818,0.05634 -0.81694,0.13011 -1.27132,0.170778 -0.17539,0.01523 -0.35227,0.02517 -0.5304,0.02971 -0.68829,0.01756 -1.35306,-0.04639 -1.9771,-0.168917 -0.42829,-0.07776 -0.871296,-0.205793 -1.302175,-0.432027 -0.197525,-0.109113 -0.356004,-0.21925 -0.478911,-0.300649 -0.589746,-0.387141 -1.191611,-0.625031 -1.736604,-0.763471 -0.330516,-0.08117 -0.591901,-0.125996 -0.843735,-0.128975 0,0 0,0 0,0 -0.366022,-0.0034 -0.618158,0.05841 -0.827273,0.129588 0,0 0,0 0,0 -0.206551,0.06866 -0.336975,0.128973 -0.402876,0.07617 z"
       id="path1975"
       inkscape:path-effect="#path-effect1977;#path-effect1979"
       inkscape:original-d="m 94.675736,45.030236 c 0.08693,-0.0859 0.157031,-0.1932 0.260806,-0.25779 0.45675,-0.28431 1.35197,-0.39046 1.89055,-0.35644 0.741564,0.0468 1.364121,0.35762 2.006768,0.70495 0.153048,0.0827 0.293133,0.19012 0.452166,0.26065 0.25113,0.11138 0.815854,0.28308 1.109454,0.33129 0.75188,0.12347 1.55546,0.14648 2.31645,0.11178 0.66031,-0.0301 0.54906,-0.0667 1.24062,-0.15074 0.25149,-0.0306 1.45407,-0.12635 1.59966,-0.13237 0.85137,-0.0352 1.74513,0.0438 2.59027,0.13232 0.30215,0.0316 0.59918,0.10645 0.90205,0.13025 0.36335,0.0286 0.77835,0 1.15305,0" />
    <path
       style="fill:#43791f;fill-opacity:1;stroke:none;stroke-width:0.0329846px;stroke-linecap:butt;stroke-linejoin:miter;stroke-opacity:1"
       d="m 23.732567,45.955989 c -0.03442,-0.07183 2.093398,-2.070026 6.124961,-1.318392 0,0 1e-6,0 1e-6,0 0.791249,0.150125 1.533258,0.3892 2.315435,0.655919 0.180753,0.06164 0.312627,0.107097 0.49338,0.168733 0.352655,0.116732 0.658109,0.220394 0.948531,0.261886 0.134611,0.02168 0.300629,0.03367 0.479542,0.05368 0.303941,0.03406 0.594943,0.08522 0.855715,0.129978 0.995004,0.16199 1.717158,0.262501 2.448819,0.17355 0.203594,-0.02227 0.433343,-0.06516 0.636925,-0.100135 0.40086,-0.07665 0.767232,-0.11196 1.134534,-0.04882 0.238973,0.04735 0.464893,0.143348 0.584736,0.189248 0,0 0,0 0,0 0.346704,0.132196 0.5697,0.184698 0.573645,0.267076 0.0039,0.08238 -0.216596,0.193955 -0.652021,0.192878 0,0 0,0 0,0 -0.180307,-1.93e-4 -0.381364,-0.02786 -0.560381,-0.01311 -0.261268,0.01151 -0.485788,0.100199 -0.871882,0.225897 -0.194412,0.06735 -0.426303,0.146107 -0.674739,0.207947 -0.861748,0.205595 -1.760161,0.187171 -2.78403,0.06195 -0.270121,-0.03074 -0.54819,-0.06688 -0.802908,-0.08474 -0.150749,-0.0106 -0.333168,-0.0186 -0.534201,-0.04292 -0.427685,-0.05697 -0.813627,-0.172047 -1.176243,-0.294053 -0.167763,-0.05487 -0.334229,-0.110943 -0.501586,-0.167835 -0.787977,-0.267867 -1.457859,-0.50426 -2.156643,-0.663174 0,0 0,0 0,0 -3.234166,-0.748153 -5.758569,0.401146 -5.88159,0.144439 z"
       id="path1999"
       inkscape:path-effect="#path-effect2001;#path-effect2003"
       inkscape:original-d="m 23.732569,45.955994 c 1.937777,-0.33709 4.016588,-0.81492 6.003274,-0.73142 0.778796,0.0327 1.986236,0.59187 2.733522,0.82783 0.349062,0.11022 0.704002,0.20345 1.062387,0.27797 0.166169,0.0345 0.338289,0.0287 0.506871,0.0483 0.276871,0.0322 0.553127,0.0697 0.829312,0.10736 0.849037,0.11587 1.761812,0.20011 2.616425,0.0558 0.221424,-0.0374 0.435275,-0.11182 0.655832,-0.15404 0.133089,-0.0255 0.773947,-0.11807 1.003207,-0.13736 0.203212,-0.0171 0.376939,0.0767 0.572558,0.10118 0.203929,0.0256 0.405757,0.0371 0.612833,0.0371" />
    <path
       style="fill:#43791f;fill-opacity:1;stroke:none;stroke-width:0.0233226px;stroke-linecap:butt;stroke-linejoin:miter;stroke-opacity:1"
       d="m 60.04903,47.162242 c -0.03141,-0.12924 0.510741,-0.376484 1.371012,-0.708929 0.166952,-0.06767 0.393309,-0.149896 0.672812,-0.172324 0.337799,-0.01034 0.599286,0.0617 0.841258,0.108649 0.217314,0.0387 0.449093,0.05236 0.705817,0.05633 0.223988,0.0029 0.448252,-0.0043 0.697777,-0.01012 0.325898,-0.0076 0.643836,-0.01088 0.973218,0.01489 0.16584,0.01336 0.310584,0.03256 0.438243,0.04077 0.289768,0.01983 0.628087,-0.0016 0.969396,0.04672 0,0 10e-7,0 10e-7,0 0.207513,0.03071 0.355872,0.07735 0.472548,0.08933 0.130746,0.01795 0.313158,0.0025 0.504391,0.02436 0.119089,0.02679 0.181989,0.06452 0.21561,0.07539 l 0,0 c 0,0 0,0 0,0 0.05053,0.0155 0.115963,0.02598 0.187728,0.0373 0,0 1e-6,0 1e-6,0 0.01861,-0.01044 0.03693,-0.01298 0.05036,-0.0049 0.01342,0.0081 0.02072,0.02693 0.02852,0.04327 0.04289,0.07091 0.111736,0.113757 0.165744,0.132649 0,0 0,0 0,0 0.07067,0.04619 0.172762,0.01523 0.210447,0.04843 0.0036,0.0032 0.06116,0.185733 -0.210447,0.238543 0,0 0,0 0,0 -0.07581,0.01915 -0.175719,0.01031 -0.25515,-0.05746 -0.02049,-0.01555 -0.04006,-0.0361 -0.0666,-0.05183 -0.02548,-0.0151 -0.05495,-0.02333 -0.08493,-0.02957 0,0 0,0 0,0 0.0274,0.01535 0.04623,0.03767 0.05018,0.06201 0,0 0,0 0,0 l 0,0 c -0.127811,0.04013 -0.24183,0.05424 -0.308712,0.07539 -0.113971,0.01264 -0.263698,0.06125 -0.491883,0.07666 -0.203368,0.0097 -0.39037,-0.01401 -0.538631,-0.01725 0,0 0,0 0,0 -0.243622,-0.0075 -0.54185,0.04614 -0.922558,0.04672 -0.172962,-2.76e-4 -0.319014,-0.0114 -0.466345,-0.01689 -0.285476,-0.01142 -0.570913,-6.15e-4 -0.900487,0.0071 -0.248117,0.0058 -0.492873,0.0088 -0.744252,-0.0024 -0.290586,-0.01229 -0.576293,-0.04704 -0.856215,-0.116648 -0.294799,-0.06965 -0.497654,-0.160073 -0.654994,-0.163566 -0.132926,-0.0165 -0.31805,0.02603 -0.498062,0.05849 -0.921798,0.181937 -1.524373,0.198023 -1.555786,0.06878 z"
       id="path1993-3"
       inkscape:path-effect="#path-effect2028;#path-effect2030"
       inkscape:original-d="m 60.04903,47.162242 c 0.466755,-0.209659 0.965426,-0.293855 1.463399,-0.388856 0.195377,-0.03727 0.387715,-0.09378 0.585437,-0.115405 0.390962,-0.04277 0.458877,-0.01093 0.748126,0.136107 0.05497,0.02794 0.717566,0.08361 0.781016,0.08649 0.550512,0.02499 1.108403,-0.04029 1.657867,0 0.154373,0.01132 0.296608,0.02883 0.452294,0.02883 0.311066,0 0.63607,-0.02727 0.945977,0 0.168093,0.01479 0.3414,0.01954 0.50559,0.05329 0.156144,0.0321 0.344373,-0.01245 0.498137,-0.02615 0.08704,-0.0078 0.174774,0 0.262161,0 0.02547,0 0.113589,-0.01578 0.136422,0 0.01844,0.01275 0.02892,0.03509 0.04756,0.04755 0.04633,0.03098 0.350578,0 0.420894,0" />
    <path
       style="fill:#43791f;fill-opacity:1;stroke:none;stroke-width:0.0198664px;stroke-linecap:butt;stroke-linejoin:miter;stroke-opacity:1"
       d="m 18.556188,23.314499 c 0.182944,-0.0775 0.788809,-0.133699 1.656994,-0.146521 0,0 0,0 0,0 0.357837,-0.0083 0.851647,-0.0081 1.343212,0.161949 0.07431,0.02703 0.139924,0.0544 0.197883,0.07625 0.319497,0.120901 0.678211,0.190579 1.057099,0.196301 0.405455,0.0081 0.863476,-0.07304 1.382776,-0.08387 0.320491,-0.0068 0.62649,0.01692 0.913233,0.02325 0.165152,0.0036 0.318841,0.0012 0.465295,-0.01525 0.356058,-0.03569 0.754922,-0.152692 1.184328,-0.163433 0.100355,-0.0016 0.178903,0.0033 0.237936,-9.5e-5 0.05995,-0.006 0.102584,-0.0081 0.122412,-0.01964 0.02288,-0.0089 0.110218,-0.07877 0.276045,-0.144105 0,0 10e-7,0 10e-7,0 0.158814,-0.04117 0.289682,-0.03411 0.385179,-0.006 0.09892,0.02224 0.163178,0.04713 0.20343,0.05387 0.05797,0.01656 0.156237,0.0063 0.269387,0.0039 0.3817,-0.01343 0.831567,0.04654 1.048389,0.06888 0.267209,0.0273 0.42138,0.03924 0.583064,0.07808 0.22166,0.05336 0.261126,0.114385 0.153176,0.157682 -0.03688,0.01479 -0.08919,0.0285 -0.15641,0.0433 0,0 -1e-6,1e-6 -1e-6,1e-6 -0.100593,0.02209 -0.354521,0.07172 -0.575713,0.09778 -0.288345,0.03422 -0.641072,0.03446 -1.000834,0.09491 -0.09353,0.01723 -0.223967,0.04062 -0.386815,0.03214 -0.109818,-0.01038 -0.193983,-0.0306 -0.249554,-0.03752 -0.05289,1.62e-4 -0.08222,-0.0053 -0.0719,0.0039 0.0038,-0.01011 -0.03936,0.0475 -0.172908,0.122262 -0.128137,0.06761 -0.25406,0.101822 -0.366421,0.111561 -0.107803,0.0119 -0.199493,0.01328 -0.271234,0.01858 -0.31085,0.01902 -0.670854,0.149869 -1.125112,0.210568 -0.511037,0.06342 -1.004277,0.0086 -1.45054,0.01612 -0.218807,0.0038 -0.445229,0.02434 -0.689486,0.04128 -0.241218,0.01673 -0.481687,0.02836 -0.731515,0.01759 -0.470774,-0.02214 -0.908724,-0.133718 -1.291369,-0.307563 -0.06995,-0.03187 -0.128975,-0.06171 -0.180515,-0.08466 -0.330733,-0.156032 -0.784136,-0.197529 -1.128573,-0.240029 -1.227051,-0.140499 -1.903105,-0.266165 -1.630938,-0.381441 z"
       id="path1981-1"
       inkscape:path-effect="#path-effect2056;#path-effect2058"
       inkscape:original-d="m 18.498215,23.364381 c 0.530345,-0.09608 1.179117,0.0062 1.701939,0.06758 0.289079,0.03397 0.910253,0.115209 1.235915,0.20093 0.06628,0.01738 0.12538,0.05548 0.189198,0.08046 0.46995,0.183922 0.587453,0.245625 1.174212,0.252001 0.467873,0.0051 0.934248,-0.05574 1.401889,-0.07138 0.470222,-0.01574 0.944099,0.02086 1.414531,-0.0041 0.385966,-0.02046 0.773355,-0.132925 1.154725,-0.186927 0.167301,-0.02368 0.336894,-0.0197 0.499029,-0.07493 0.08578,-0.02922 0.131327,-0.0994 0.224467,-0.133181 0.03114,-0.01132 0.433168,0.04018 0.455008,0.0407 0.109441,0.0026 0.218696,-0.01055 0.328107,-0.01417 0.339686,-0.01124 0.684875,-0.01535 1.024609,-0.01313 1.170535,0.04765 -0.467343,-0.0064 0.579389,-0.0097 0.304234,-9.59e-4 0.04505,0.04078 0.213938,0.0091" />
    <path
       style="fill:#43791f;fill-opacity:1;stroke:none;stroke-width:0.0198664px;stroke-linecap:butt;stroke-linejoin:miter;stroke-opacity:1"
       d="m 74.653096,22.454439 c 0.182944,0.0775 0.788809,0.133699 1.656994,0.146521 0,0 0,0 0,0 0.357837,0.0083 0.851647,0.0081 1.343212,-0.161949 0.07431,-0.02703 0.139924,-0.0544 0.197883,-0.07625 0.319497,-0.120901 0.678211,-0.190579 1.057099,-0.196301 0.405455,-0.0081 0.863476,0.07304 1.382776,0.08387 0.320491,0.0068 0.62649,-0.01692 0.913233,-0.02325 0.165152,-0.0036 0.318841,-0.0012 0.465295,0.01525 0.356058,0.03569 0.754922,0.152692 1.184328,0.163433 0.100355,0.0016 0.178903,-0.0033 0.237936,9.5e-5 0.05995,0.0061 0.102584,0.0081 0.122412,0.01964 0.02289,0.0089 0.110218,0.07877 0.276045,0.144105 0,0 10e-7,0 10e-7,0 0.158814,0.04117 0.289682,0.03411 0.385179,0.006 0.09892,-0.02224 0.163178,-0.04713 0.20343,-0.05387 0.05797,-0.01656 0.156237,-0.0063 0.269387,-0.0039 0.3817,0.01343 0.831567,-0.04653 1.048389,-0.06888 0.267209,-0.0273 0.42138,-0.03924 0.583064,-0.07808 0.22166,-0.05336 0.261126,-0.114385 0.153176,-0.157682 -0.03688,-0.01479 -0.08919,-0.0285 -0.15641,-0.0433 0,0 -10e-7,-1e-6 -10e-7,-1e-6 -0.100593,-0.02209 -0.354521,-0.07172 -0.575713,-0.09778 -0.288345,-0.03422 -0.641072,-0.03445 -1.000834,-0.09491 -0.09353,-0.01723 -0.223967,-0.04062 -0.386815,-0.03214 -0.109818,0.01038 -0.193983,0.0306 -0.249554,0.03752 -0.05289,-1.62e-4 -0.08222,0.0053 -0.0719,-0.0039 0.0038,0.01011 -0.03936,-0.0475 -0.172908,-0.122262 -0.128137,-0.06761 -0.25406,-0.101822 -0.366421,-0.111561 -0.107803,-0.0119 -0.199493,-0.01328 -0.271234,-0.01858 -0.31085,-0.01902 -0.670854,-0.149869 -1.125112,-0.210568 -0.511037,-0.06342 -1.004277,-0.0086 -1.45054,-0.01613 -0.218807,-0.0038 -0.445229,-0.02434 -0.689486,-0.04128 -0.241218,-0.01673 -0.481687,-0.02836 -0.731515,-0.01759 -0.470774,0.02214 -0.908724,0.133718 -1.291369,0.307563 -0.06995,0.03187 -0.128975,0.06171 -0.180515,0.08465 -0.330733,0.156032 -0.784136,0.197529 -1.128573,0.240029 -1.227051,0.140499 -1.903105,0.266165 -1.630938,0.381441 z"
       id="path1981-1-9"
       inkscape:path-effect="#path-effect2084;#path-effect2086"
       inkscape:original-d="m 74.595123,22.404557 c 0.530345,0.09608 1.179117,-0.0062 1.701939,-0.06758 0.289079,-0.03397 0.910253,-0.115209 1.235915,-0.20093 0.06628,-0.01738 0.12538,-0.05548 0.189198,-0.08046 0.46995,-0.183922 0.587453,-0.245625 1.174212,-0.252001 0.467873,-0.0051 0.934248,0.05574 1.401889,0.07138 0.470222,0.01574 0.944099,-0.02086 1.414531,0.0041 0.385966,0.02046 0.773355,0.132925 1.154725,0.186927 0.167301,0.02368 0.336894,0.0197 0.499029,0.07493 0.08578,0.02922 0.131327,0.0994 0.224467,0.133181 0.03114,0.01132 0.433168,-0.04018 0.455008,-0.0407 0.109441,-0.0026 0.218696,0.01055 0.328107,0.01417 0.339686,0.01124 0.684875,0.01535 1.024609,0.01313 1.170535,-0.04765 -0.467343,0.0064 0.579389,0.0097 0.304234,9.59e-4 0.04505,-0.04078 0.213938,-0.0091"
       inkscape:transform-center-x="16.516895"
       inkscape:transform-center-y="-1.3633386" />
  </g>
</svg>
